<svg width="484" height="483" viewBox="0 0 484 483" fill="none" xmlns="http://www.w3.org/2000/svg">
<path fill-rule="evenodd" clip-rule="evenodd" d="M457.626 114.354C457.626 65.7534 418.227 26.3545 369.626 26.3545H135.626C87.0249 26.3545 47.626 65.7534 47.626 114.354V317.854C81.4593 328.688 138.656 354.354 195.626 354.354C280.626 354.354 408.126 275.354 457.626 240.354V114.354Z" fill="#FFFBEB"/>
<path d="M47.626 348.354C47.626 396.956 87.0249 436.354 135.626 436.354H369.626C418.227 436.354 457.626 396.956 457.626 348.354V240.354C408.126 275.354 280.626 354.354 195.626 354.354C138.656 354.354 81.4593 328.688 47.626 317.854V348.354Z" fill="url(#paint0_linear_1_6)"/>
<rect x="23.4491" y="3.17766" width="457.354" height="457.354" rx="96.5524" stroke="url(#paint1_linear_1_6)" stroke-width="5.64634" stroke-dasharray="22.59 22.59"/>
<path d="M92.026 360.05C92.026 357.456 89.9244 355.354 87.3307 355.354H81.925C79.3276 355.354 77.226 357.456 77.226 360.05C77.226 362.188 75.7608 364.024 73.7665 364.808C73.452 364.934 73.1375 365.067 72.8304 365.2C70.8657 366.051 68.531 365.792 67.014 364.279C66.1335 363.399 64.9398 362.905 63.6951 362.905C62.4504 362.905 61.2566 363.399 60.3762 364.279L56.5504 368.105C55.6706 368.985 55.1763 370.179 55.1763 371.424C55.1763 372.668 55.6706 373.862 56.5504 374.742C58.0674 376.259 58.3264 378.59 57.468 380.559C57.3331 380.869 57.2036 381.181 57.0795 381.495C56.2951 383.489 54.4599 384.954 52.3213 384.954C49.7276 384.954 47.626 387.056 47.626 389.65V395.059C47.626 397.653 49.7276 399.754 52.3213 399.754C54.4599 399.754 56.2951 401.22 57.0795 403.214C57.2053 403.528 57.3385 403.843 57.468 404.15C58.3227 406.115 58.0637 408.449 56.5504 409.966C55.6706 410.847 55.1763 412.041 55.1763 413.285C55.1763 414.53 55.6706 415.724 56.5504 416.604L60.3762 420.43C61.2566 421.31 62.4504 421.804 63.6951 421.804C64.9398 421.804 66.1335 421.31 67.014 420.43C68.531 418.913 70.862 418.654 72.8304 419.509C73.1375 419.646 73.452 419.775 73.7665 419.901C75.7608 420.685 77.226 422.521 77.226 424.659C77.226 427.253 79.3276 429.354 81.9213 429.354H87.3307C89.9244 429.354 92.026 427.253 92.026 424.659C92.026 422.521 93.4912 420.685 95.4855 419.897C95.8 419.775 96.1145 419.646 96.4216 419.512C98.3863 418.654 100.721 418.917 102.234 420.43C102.67 420.866 103.188 421.212 103.758 421.448C104.328 421.684 104.938 421.806 105.555 421.806C106.172 421.806 106.782 421.684 107.352 421.448C107.922 421.212 108.44 420.866 108.876 420.43L112.702 416.604C113.581 415.724 114.076 414.53 114.076 413.285C114.076 412.041 113.581 410.847 112.702 409.966C111.185 408.449 110.926 406.118 111.78 404.15C111.917 403.843 112.047 403.528 112.172 403.214C112.957 401.22 114.792 399.754 116.931 399.754C119.524 399.754 121.626 397.653 121.626 395.059V389.653C121.626 387.06 119.524 384.958 116.931 384.958C114.792 384.958 112.957 383.493 112.169 381.499C112.045 381.184 111.915 380.872 111.78 380.563C110.929 378.598 111.188 376.263 112.702 374.746C113.581 373.866 114.076 372.672 114.076 371.427C114.076 370.183 113.581 368.989 112.702 368.108L108.876 364.283C107.995 363.403 106.802 362.909 105.557 362.909C104.312 362.909 103.118 363.403 102.238 364.283C100.721 365.8 98.39 366.059 96.4216 365.204C96.1118 365.068 95.7998 364.937 95.4855 364.812C93.4912 364.024 92.026 362.188 92.026 360.053V360.05Z" stroke="#FFFBEB" stroke-width="7.4"/>
<path d="M99.4276 392.354C99.4276 396.279 97.8683 400.044 95.0928 402.819C92.3172 405.595 88.5528 407.154 84.6276 407.154C80.7024 407.154 76.9379 405.595 74.1624 402.819C71.3869 400.044 69.8276 396.279 69.8276 392.354C69.8276 388.429 71.3869 384.664 74.1624 381.889C76.9379 379.113 80.7024 377.554 84.6276 377.554C88.5528 377.554 92.3172 379.113 95.0928 381.889C97.8683 384.664 99.4276 388.429 99.4276 392.354V392.354Z" stroke="#FFFBEB" stroke-width="7.4"/>
<path d="M443.826 160.606C443.826 158.257 441.923 156.354 439.575 156.354H434.68C432.329 156.354 430.426 158.257 430.426 160.606C430.426 162.542 429.099 164.204 427.294 164.914C427.009 165.028 426.724 165.148 426.446 165.269C424.667 166.039 422.553 165.805 421.18 164.435C420.383 163.638 419.302 163.191 418.175 163.191C417.048 163.191 415.967 163.638 415.17 164.435L411.706 167.899C410.91 168.696 410.462 169.777 410.462 170.904C410.462 172.03 410.91 173.111 411.706 173.908C413.08 175.282 413.314 177.392 412.537 179.175C412.415 179.455 412.298 179.738 412.185 180.022C411.475 181.828 409.813 183.154 407.877 183.154C405.529 183.154 403.626 185.057 403.626 187.406V192.303C403.626 194.652 405.529 196.554 407.877 196.554C409.813 196.554 411.475 197.881 412.185 199.687C412.299 199.971 412.42 200.256 412.537 200.534C413.311 202.313 413.076 204.427 411.706 205.8C410.91 206.598 410.462 207.678 410.462 208.805C410.462 209.932 410.91 211.013 411.706 211.81L415.17 215.274C415.967 216.071 417.048 216.518 418.175 216.518C419.302 216.518 420.383 216.071 421.18 215.274C422.553 213.901 424.664 213.666 426.446 214.44C426.724 214.564 427.009 214.681 427.294 214.795C429.099 215.505 430.426 217.167 430.426 219.103C430.426 221.452 432.329 223.354 434.677 223.354H439.575C441.923 223.354 443.826 221.452 443.826 219.103C443.826 217.167 445.153 215.505 446.958 214.792C447.243 214.681 447.528 214.564 447.806 214.443C449.585 213.666 451.698 213.904 453.069 215.274C453.463 215.669 453.932 215.983 454.448 216.196C454.964 216.41 455.517 216.52 456.075 216.52C456.634 216.52 457.187 216.41 457.702 216.196C458.218 215.983 458.687 215.669 459.082 215.274L462.546 211.81C463.342 211.013 463.79 209.932 463.79 208.805C463.79 207.678 463.342 206.598 462.546 205.8C461.172 204.427 460.938 202.316 461.712 200.534C461.836 200.256 461.953 199.971 462.067 199.687C462.777 197.881 464.439 196.554 466.375 196.554C468.723 196.554 470.626 194.652 470.626 192.303V187.409C470.626 185.061 468.723 183.158 466.375 183.158C464.439 183.158 462.777 181.831 462.063 180.026C461.951 179.741 461.834 179.458 461.712 179.178C460.941 177.399 461.176 175.285 462.546 173.912C463.342 173.115 463.79 172.034 463.79 170.907C463.79 169.78 463.342 168.699 462.546 167.902L459.082 164.438C458.285 163.641 457.204 163.194 456.077 163.194C454.95 163.194 453.869 163.641 453.072 164.438C451.698 165.812 449.588 166.046 447.806 165.272C447.525 165.149 447.243 165.031 446.958 164.917C445.153 164.204 443.826 162.542 443.826 160.609V160.606Z" stroke="url(#paint2_linear_1_6)" stroke-width="6.7"/>
<path d="M450.527 189.854C450.527 193.408 449.115 196.817 446.602 199.33C444.089 201.843 440.681 203.254 437.127 203.254C433.573 203.254 430.164 201.843 427.651 199.33C425.138 196.817 423.727 193.408 423.727 189.854C423.727 186.3 425.138 182.892 427.651 180.379C430.164 177.866 433.573 176.454 437.127 176.454C440.681 176.454 444.089 177.866 446.602 180.379C449.115 182.892 450.527 186.3 450.527 189.854V189.854Z" stroke="url(#paint3_linear_1_6)" stroke-width="6.7"/>
<path d="M200.366 55.8379C197.357 56.3542 195.044 57.1818 192.953 58.4682C191.083 59.6182 189.391 61.1349 187.536 63.1237C186.849 63.8603 186.2 64.7541 185.599 65.7181C183.057 69.7964 181.383 75.1306 181.383 75.1306L144.339 317.234C143.603 322.047 146.722 326.561 151.392 327.635C151.843 327.739 152.297 327.835 152.739 327.972L158.455 329.753L159.832 320.755L200.366 55.8379Z" fill="#FDDAB9"/>
<path d="M328.751 394.653L353.349 386.783L329.996 386.518L328.751 394.653Z" fill="#FFC794"/>
<path d="M187.536 63.1237C189.391 61.1349 191.083 59.6182 192.953 58.4682L176.461 64.3199L185.599 65.7181C186.2 64.7541 186.849 63.8603 187.536 63.1237Z" fill="#FDDAB9"/>
<path fill-rule="evenodd" clip-rule="evenodd" d="M156.025 340.036L332.966 367.109L329.996 386.518L153.055 359.445L156.025 340.036Z" fill="#FDDAB9"/>
<path d="M353.349 386.783L355.825 370.607L341.862 368.47L332.966 367.109L329.996 386.518L353.349 386.783Z" fill="#FFC794"/>
<path d="M341.862 368.47L355.825 370.607L356.945 363.284L341.862 368.47Z" fill="#FFC794"/>
<path d="M409.725 110.069C409.534 103.257 407.687 97.9957 406.202 95.6104L383.486 109.653L344.795 349.056L358.794 351.197L357.972 356.572L372.53 353.161L409.725 110.069Z" fill="#FFC794"/>
<path d="M356.945 363.284L357.418 360.196L348.397 358.816L343.435 358.057L341.862 368.47L356.945 363.284Z" fill="#FFC794"/>
<path d="M358.794 351.197L344.795 349.056L343.435 358.057L348.397 358.816L357.972 356.572L358.794 351.197Z" fill="#FFC794"/>
<path fill-rule="evenodd" clip-rule="evenodd" d="M394.969 85.6135C388.342 84.5998 200.366 55.8379 200.366 55.8379L159.832 320.755L158.995 320.627L156.025 340.036L332.966 367.109L341.862 368.47L343.435 358.057L344.795 349.056L383.486 109.653L406.202 95.6104C404.314 92.3974 400.857 86.5142 394.969 85.6135Z" fill="#FDDAB9"/>
<path d="M348.397 358.816L357.418 360.196L357.972 356.572L348.397 358.816Z" fill="#FFC794"/>
<path d="M369.625 358.924C371.408 357.525 372.161 355.577 372.53 353.161L357.972 356.572L357.418 360.196L356.945 363.284L366.081 360.629L366.585 360.483C367.726 360.122 368.782 359.587 369.625 358.924Z" fill="#FFC794"/>
<path fill-rule="evenodd" clip-rule="evenodd" d="M328.85 394.936L331.82 375.527L132.02 344.956L129.05 364.366L328.85 394.936Z" fill="#EAD4D4"/>
<path d="M334.79 356.118L134.99 325.547L132.02 344.956L331.82 375.527L334.79 356.118Z" fill="#E4CECE"/>
<path d="M175.816 64.2211C170.117 65.1989 166.916 67.2933 162.986 71.5069C159.392 75.36 156.832 83.5139 156.832 83.5139L119.789 325.618C119.017 330.662 122.48 335.377 127.525 336.149L134.056 337.148L175.816 64.2211Z" fill="#F6E6E6"/>
<path d="M370.419 93.9968C363.791 92.983 175.816 64.2211 175.816 64.2211L134.056 337.148L337.6 368.292C342.644 369.064 347.359 365.6 348.131 360.556L385.175 118.452C384.984 111.64 383.776 107.448 382.291 105.062C380.594 102.336 377.046 95.0106 370.419 93.9968Z" fill="#F9EAEA"/>
<path d="M318.106 251.327L181.1 230.364C176.613 229.678 172.896 227.071 170.656 223.508L149.748 235.077C150.266 235.848 151.092 236.409 152.083 236.56L344.711 266.034C345.777 266.197 346.804 265.851 347.545 265.179C348.108 264.667 348.506 263.966 348.63 263.154L370.58 119.701C370.712 118.834 370.515 117.995 370.08 117.314L347.453 132.072C349.528 135.108 350.495 138.917 349.893 142.852L335.219 238.756C334.667 242.362 332.875 245.472 330.343 247.716C327.119 250.573 322.697 252.03 318.106 251.327Z" fill="#EFDFDF"/>
<path d="M200.308 104.775L337.396 125.75C341.658 126.402 345.206 128.783 347.453 132.072L370.08 117.314C369.572 116.519 368.741 115.94 367.73 115.786L174.953 86.2894C174.12 86.1619 173.335 86.3486 172.693 86.7598C171.89 87.275 171.313 88.1428 171.154 89.1869L149.204 232.641C149.069 233.527 149.284 234.387 149.748 235.077L170.656 223.508C168.804 220.562 167.961 216.961 168.529 213.251L183.203 117.347C183.813 113.359 185.938 109.979 188.903 107.703C192.033 105.302 196.099 104.131 200.308 104.775Z" fill="#FDF5F5"/>
<path d="M337.396 125.75L200.308 104.775C196.099 104.131 192.033 105.302 188.903 107.703C185.938 109.979 183.813 113.359 183.203 117.347L168.529 213.251C167.961 216.961 168.804 220.562 170.656 223.508C172.896 227.071 176.613 229.678 181.1 230.364L318.106 251.327C322.697 252.03 327.119 250.573 330.343 247.716C332.875 245.472 334.667 242.362 335.219 238.756L349.893 142.852C350.495 138.917 349.528 135.108 347.453 132.072C345.206 128.783 341.658 126.402 337.396 125.75Z" fill="url(#paint4_linear_1_6)"/>
<path d="M246.222 186.58L252.63 182.886L263.476 184.546L268.486 189.986" stroke="#FFE600" stroke-width="6.93" stroke-linecap="round" stroke-linejoin="round"/>
<path d="M237.517 149.436L216.278 164.687" stroke="#FFE600" stroke-width="9.24" stroke-linecap="round" stroke-linejoin="round"/>
<path d="M218.691 147.367L236.633 166.388" stroke="#FFE600" stroke-width="9.24" stroke-linecap="round" stroke-linejoin="round"/>
<path d="M305.123 161.132L281.903 173.154" stroke="#FFE600" stroke-width="9.24" stroke-linecap="round" stroke-linejoin="round"/>
<path d="M286.793 156.365L301.798 177.778" stroke="#FFE600" stroke-width="9.24" stroke-linecap="round" stroke-linejoin="round"/>
<rect x="151.89" y="268.543" width="21.945" height="21.945" rx="4.62" transform="rotate(8.69918 151.89 268.543)" fill="#EAD4D4"/>
<path d="M251.051 292.478L314.987 302.261L314.201 307.399L250.265 297.616L251.051 292.478Z" fill="#FFD600"/>
<path d="M308.224 300.642C308.417 299.381 309.596 298.515 310.857 298.708L332.549 302.027C333.811 302.22 334.676 303.399 334.484 304.66L333.435 311.51C333.242 312.771 332.064 313.637 330.803 313.444L309.11 310.125C307.849 309.932 306.983 308.753 307.176 307.492L308.224 300.642Z" fill="#FFD600"/>
<path d="M15.2194 162.368H125.033C136.262 162.368 143.262 150.191 137.647 140.493L82.7406 45.628C77.126 35.93 63.1259 35.93 57.5113 45.628L2.60474 140.493C-3.00988 150.191 3.99016 162.368 15.2194 162.368ZM70.126 111.326C66.1155 111.326 62.8342 108.045 62.8342 104.035V89.4512C62.8342 85.4407 66.1155 82.1594 70.126 82.1594C74.1364 82.1594 77.4177 85.4407 77.4177 89.4512V104.035C77.4177 108.045 74.1364 111.326 70.126 111.326ZM77.4177 140.493H62.8342V125.91H77.4177V140.493Z" fill="url(#paint5_radial_1_6)"/>
<defs>
<linearGradient id="paint0_linear_1_6" x1="47.626" y1="395.854" x2="480.126" y2="341.354" gradientUnits="userSpaceOnUse">
<stop offset="0.577204" stop-color="#FED02C"/>
<stop offset="1" stop-color="#FEAA2C"/>
</linearGradient>
<linearGradient id="paint1_linear_1_6" x1="20.626" y1="231.854" x2="483.626" y2="261.215" gradientUnits="userSpaceOnUse">
<stop stop-color="#FED02C"/>
<stop offset="1" stop-color="#FF9900"/>
</linearGradient>
<linearGradient id="paint2_linear_1_6" x1="437.126" y1="156.354" x2="437.126" y2="223.354" gradientUnits="userSpaceOnUse">
<stop stop-color="#FA9928"/>
<stop offset="1" stop-color="#FECC19"/>
</linearGradient>
<linearGradient id="paint3_linear_1_6" x1="437.127" y1="176.454" x2="437.127" y2="203.254" gradientUnits="userSpaceOnUse">
<stop stop-color="#FA9928"/>
<stop offset="1" stop-color="#FECC19"/>
</linearGradient>
<linearGradient id="paint4_linear_1_6" x1="175.61" y1="174.607" x2="342.3" y2="200.112" gradientUnits="userSpaceOnUse">
<stop stop-color="#EEC638"/>
<stop offset="1" stop-color="#CCBDB0"/>
</linearGradient>
<radialGradient id="paint5_radial_1_6" cx="0" cy="0" r="1" gradientUnits="userSpaceOnUse" gradientTransform="translate(22.1279 80.3545) rotate(31.5043) scale(127.258 142.636)">
<stop offset="0.575465" stop-color="#FFC700"/>
<stop offset="1" stop-color="#FE912C"/>
</radialGradient>
</defs>
</svg>
