<?xml version="1.0" encoding="UTF-8"?>
<svg version="1.1" xmlns="http://www.w3.org/2000/svg" width="512" height="512">
<path d="M0 0 C1.10598038 -0.00852997 2.21196075 -0.01705994 3.35145569 -0.02584839 C4.55520844 -0.02494202 5.75896118 -0.02403564 6.99919128 -0.02310181 C8.27454239 -0.02981903 9.54989349 -0.03653625 10.8638916 -0.04345703 C14.35577612 -0.0610942 17.84756256 -0.06581148 21.33948731 -0.0670886 C23.52374615 -0.06851221 25.70798022 -0.07278581 27.89223289 -0.07808304 C35.52002413 -0.09657672 43.14774556 -0.1047546 50.77555847 -0.10317993 C57.87325596 -0.10197914 64.97064906 -0.12307063 72.06826955 -0.15466726 C78.17206871 -0.18086629 84.27576868 -0.19154569 90.37962359 -0.19026911 C94.020676 -0.18976048 97.66145786 -0.19538827 101.30245399 -0.21662521 C105.36694072 -0.2396857 109.43075071 -0.23046466 113.49528503 -0.21841431 C114.69296509 -0.22965332 115.89064514 -0.24089233 117.12461853 -0.25247192 C124.91521692 -0.19382798 130.39551839 0.77615571 136.46476746 6.01351929 C137.13379089 6.85076538 137.13379089 6.85076538 137.81632996 7.70492554 C138.50855652 8.53830444 138.50855652 8.53830444 139.21476746 9.38851929 C142.44801846 14.34136557 142.70103782 18.78230632 142.56632996 24.57992554 C142.55730652 25.32049194 142.54828308 26.06105835 142.53898621 26.82406616 C142.51557209 28.63866021 142.47970611 30.45308625 142.44132996 32.26742554 C143.29251404 32.24647827 144.14369812 32.22553101 145.02067566 32.20394897 C148.23189662 32.13506391 151.44273639 32.08528503 154.65446472 32.04769897 C156.03447495 32.02779884 157.41440332 32.00066814 158.79411316 31.96566772 C171.74174422 31.645857 181.59344793 33.61386112 191.44132996 42.26742554 C192.04718933 42.76887085 192.65304871 43.27031616 193.27726746 43.78695679 C199.40051968 49.28184033 203.82196973 57.17386712 205.44132996 65.26742554 C205.52711704 67.10011901 205.55906336 68.93565986 205.55485535 70.77035522 C205.55477982 71.87119446 205.55470428 72.97203369 205.55462646 74.10623169 C205.54946518 75.28864441 205.54430389 76.47105713 205.53898621 77.68930054 C205.53686378 79.51198456 205.53686378 79.51198456 205.53469849 81.37149048 C205.52909983 85.25349385 205.51654755 89.13543959 205.50382996 93.01742554 C205.49881478 95.64893512 205.49425191 98.28044561 205.49015808 100.91195679 C205.47913084 107.36379937 205.46239403 113.81560834 205.44132996 120.26742554 C206.7401989 120.24280243 206.7401989 120.24280243 208.06530762 120.21768188 C210.45313743 120.17241497 212.84098097 120.12786752 215.22883606 120.08395386 C217.1180973 120.04698633 219.00733059 120.00713507 220.89625549 119.95578003 C232.92594349 119.63092289 244.1508415 121.28229264 253.51164246 129.35726929 C261.65053404 137.41378343 265.85363927 146.40358725 265.98096567 157.90928495 C265.96860452 159.50502172 265.96860452 159.50502172 265.95599365 161.13299561 C265.96293918 162.28871838 265.96988471 163.44444116 265.97704071 164.63518584 C265.99525906 168.48724506 265.98506015 172.33868482 265.97477722 176.19076538 C265.97964697 178.96092738 265.99044807 181.73105959 266.00088501 184.50120544 C266.02247276 191.23232334 266.02241149 197.96327183 266.01425947 204.69441293 C266.00794662 210.16843974 266.00910824 215.64241733 266.01553154 221.11644363 C266.01643319 221.89705129 266.01733485 222.67765895 266.01826383 223.48192138 C266.02011513 225.06798828 266.02197769 226.65405516 266.02385139 228.24012204 C266.04041194 243.09721119 266.03172584 257.95420525 266.01486581 272.81128867 C266.00017352 286.38556828 266.01479364 299.95962644 266.04363597 313.53387754 C266.07307209 327.49218937 266.08398979 341.45039915 266.07445377 355.40874064 C266.07343128 356.98941905 266.07243667 358.57009747 266.07147026 360.15077591 C266.07099387 360.92838069 266.07051748 361.70598548 266.07002665 362.50715404 C266.06786791 367.96943271 266.07763785 373.43161417 266.09224129 378.89387131 C266.10981084 385.55820915 266.10958154 392.22226491 266.08688963 398.8865919 C266.07578809 402.28278168 266.07522077 405.67806928 266.09119034 409.07430077 C266.10717193 412.76596562 266.09211888 416.45628591 266.06951904 420.14788818 C266.08135477 421.20725126 266.0931905 422.26661433 266.10538489 423.35807931 C265.96979883 434.31153222 262.16801304 443.47937741 254.53898621 451.36508179 C244.17050373 460.76815621 232.88042884 461.71732626 219.31632996 461.45492554 C217.9647825 461.43983985 216.61321861 461.42615837 215.26164246 461.41390991 C211.98777625 461.37883277 208.71477316 461.32967651 205.44132996 461.26742554 C205.49933777 462.41598022 205.55734558 463.56453491 205.61711121 464.74789429 C206.07076931 477.51099285 204.77215526 487.64098449 196.12882996 497.70492554 C186.45855404 507.53451407 176.9564298 512.66036394 162.91204834 512.82321167 C161.77831284 512.81511475 160.64457733 512.80701782 159.47648621 512.79867554 C158.28075485 512.80250244 157.0850235 512.80632935 155.85305786 512.81027222 C153.34625905 512.81297661 150.83943129 512.80571959 148.33268738 512.78890991 C144.49001421 512.76734801 140.64918263 512.78883165 136.80656433 512.81430054 C134.36320083 512.81165959 131.91983848 512.80653946 129.47648621 512.79867554 C128.32858109 512.80677246 127.18067596 512.81486938 125.99798584 512.82321167 C124.93265121 512.81060303 123.86731659 512.79799438 122.7696991 512.78500366 C121.8346907 512.78182129 120.89968231 512.77863892 119.93634033 512.77536011 C116.66390544 512.10915734 115.46824356 510.87699826 113.44132996 508.26742554 C112.90557789 504.51716107 112.77237683 502.30935026 114.84562683 499.08016968 C118.85439746 496.28059087 122.69511121 496.72227908 127.47257996 496.76351929 C128.95292725 496.74938744 128.95292725 496.74938744 130.46318054 496.73497009 C133.62277348 496.70629551 136.78161748 496.70324023 139.94132996 496.70492554 C162.99879472 497.74445506 162.99879472 497.74445506 182.59757996 487.51351929 C188.70427377 480.07422068 189.56440196 471.66805879 189.56996441 462.28077984 C189.57259396 461.27532957 189.57259396 461.27532957 189.57527664 460.24956718 C189.57991548 458.01141431 189.57747663 455.77332702 189.57504272 453.53517151 C189.57691176 451.91108517 189.57921284 450.28699928 189.58190805 448.6629141 C189.58802095 444.20581045 189.58789305 439.74872558 189.58671367 435.2916187 C189.58650954 430.48236831 189.59202962 425.67312393 189.59677124 420.86387634 C189.60507546 411.44397359 189.60782597 402.0240771 189.60838362 392.604171 C189.60885887 384.94709955 189.61091406 377.29003016 189.61408424 369.63295937 C189.62289004 347.9219858 189.62750371 326.21101717 189.62675377 304.50004181 C189.62671381 303.3297506 189.62667386 302.1594594 189.62663269 300.95370483 C189.62659181 299.78198423 189.62655093 298.61026362 189.62650881 297.40303633 C189.62610232 278.41157376 189.63567289 259.42013102 189.64977106 240.42867418 C189.66413398 220.92664887 189.67104129 201.42463322 189.67017728 181.92260247 C189.66984529 170.97438076 189.67259325 160.02617983 189.68335533 149.07796288 C189.69245919 139.75694908 189.69463649 130.4359655 189.68784591 121.11494919 C189.6845802 116.36033992 189.68452592 111.60578861 189.69319916 106.85118484 C189.70106269 102.49562665 189.6996342 98.1401724 189.69091503 93.78461675 C189.68937973 92.21197967 189.69119733 90.63933485 189.6967751 89.06670692 C189.83029026 71.47767739 189.83029026 71.47767739 181.82414246 56.38851929 C171.24057797 45.87082761 156.63260457 47.94320052 142.44132996 47.26742554 C142.44132996 71.68742554 142.44132996 96.10742554 142.44132996 121.26742554 C152.34132996 121.26742554 162.24132996 121.26742554 172.44132996 121.26742554 C175.44132996 124.26742554 175.44132996 124.26742554 175.83976746 126.42367554 C175.83203308 127.19711304 175.82429871 127.97055054 175.81632996 128.76742554 C175.82406433 129.54086304 175.83179871 130.31430054 175.83976746 131.11117554 C175.34168808 133.80666393 174.55112054 134.56017208 172.44132996 136.26742554 C169.42479339 136.56252715 166.61465946 136.67183835 163.59684753 136.64837646 C162.22410408 136.65539642 162.22410408 136.65539642 160.82362843 136.6625582 C157.74422709 136.67456422 154.66526618 136.66502905 151.58586121 136.65560913 C149.38341511 136.65967234 147.18097106 136.6650128 144.97853088 136.67153931 C138.98691208 136.68524851 132.99544775 136.67989936 127.00382614 136.67040205 C120.74316227 136.66282411 114.48251191 136.66984586 108.22184753 136.67456055 C97.03261287 136.6803738 85.84343508 136.67103156 74.65421402 136.65578254 C64.50476722 136.64237888 54.35542334 136.64470683 44.20597839 136.65853882 C32.42562809 136.67458589 20.64532794 136.68057341 8.86496639 136.67170203 C2.62685613 136.66701698 -3.61118319 136.66642348 -9.84928894 136.67631149 C-15.71303261 136.68495631 -21.57658127 136.67900474 -27.4403038 136.66162872 C-29.5966446 136.65765057 -31.75300171 136.65882048 -33.90933609 136.66541672 C-36.8445107 136.67356987 -39.77905366 136.6633862 -42.71418762 136.64837646 C-43.57497516 136.65506863 -44.43576269 136.6617608 -45.3226347 136.66865575 C-51.13446867 136.61069149 -51.13446867 136.61069149 -53.27495861 134.87859595 C-54.96200252 132.76120791 -54.96048933 131.44935424 -54.93367004 128.76742554 C-54.94140442 127.99398804 -54.94913879 127.22055054 -54.95710754 126.42367554 C-54.44267117 123.63966691 -53.84950038 122.93244228 -51.55867004 121.26742554 C-48.46418762 120.92684937 -48.46418762 120.92684937 -44.70320129 120.97445679 C-44.04156479 120.97870163 -43.37992828 120.98294647 -42.69824219 120.98731995 C-40.58880094 121.00408861 -38.48032158 121.04173455 -36.37117004 121.07992554 C-34.93954324 121.09497485 -33.50790142 121.10866283 -32.07624817 121.12094116 C-28.57007717 121.15398524 -25.06446751 121.20575386 -21.55867004 121.26742554 C-21.58485413 120.53104858 -21.61103821 119.79467163 -21.63801575 119.03598022 C-21.7420069 115.69667937 -21.80700414 112.35771898 -21.87117004 109.01742554 C-21.91306458 107.85855835 -21.95495911 106.69969116 -21.99812317 105.50570679 C-22.12168641 96.95513037 -22.12168641 96.95513037 -19.26570129 93.46664429 C-15.58572024 91.83640737 -13.39906904 92.20064804 -9.55867004 93.26742554 C-8.56867004 94.25742554 -7.57867004 95.24742554 -6.55867004 96.26742554 C-6.55867004 104.51742554 -6.55867004 112.76742554 -6.55867004 121.26742554 C37.66132996 121.26742554 81.88132996 121.26742554 127.44132996 121.26742554 C127.31757996 105.20055054 127.19382996 89.13367554 127.06632996 72.57992554 C127.03233093 67.50915649 126.99833191 62.43838745 126.96330261 57.21395874 C126.92338805 52.66349358 126.92338805 52.66349358 126.88087463 48.11305237 C126.86320415 46.08830025 126.84939242 44.06351221 126.83863831 42.03871155 C126.82158403 38.96936904 126.79223795 35.90036381 126.76017761 32.83114624 C126.75691939 31.48098278 126.75691939 31.48098278 126.75359535 30.10354328 C126.74656003 23.90493669 126.74656003 23.90493669 124.44132996 18.26742554 C120.99750302 16.5787011 118.20771793 16.01680579 114.39396667 16.01345825 C113.40144897 16.0078186 112.40893127 16.00217896 111.38633728 15.99636841 C110.30878174 16.00041687 109.2312262 16.00446533 108.12101746 16.00863647 C106.97739746 16.00513184 105.83377747 16.0016272 104.65550232 15.99801636 C100.87571643 15.98921482 97.09611775 15.99504277 93.31632996 16.00180054 C90.68986475 16.00045344 88.06339978 15.99851253 85.43693542 15.9960022 C79.93252027 15.9923666 74.42815883 15.99715098 68.92375183 16.00668335 C62.56566246 16.01756715 56.20770136 16.01404128 49.8496151 16.00303054 C43.72589292 15.9928513 37.60222749 15.99394105 31.47850037 15.99979401 C28.87575767 16.00112894 26.27301171 15.99948825 23.67027283 15.9948349 C20.03397426 15.98976055 16.39792262 15.99749305 12.76164246 16.00863647 C11.68408691 16.00458801 10.60653137 16.00053955 9.49632263 15.99636841 C8.00754608 16.00482788 8.00754608 16.00482788 6.48869324 16.01345825 C5.62962372 16.0142123 4.7705542 16.01496635 3.88545227 16.01574326 C1.08399525 16.3042219 -1.03271482 17.03360574 -3.55867004 18.26742554 C-6.56090466 22.81413615 -5.85594491 28.68021623 -5.86726379 33.93148804 C-5.89240816 36.04347015 -5.9178064 38.15544925 -5.94343567 40.26742554 C-5.97225702 43.59000977 -5.99628317 46.91254206 -6.01496887 50.23519897 C-6.03655299 53.44672543 -6.07596863 56.65766359 -6.11726379 59.86898804 C-6.11737961 60.86588654 -6.11749542 61.86278503 -6.11761475 62.88989258 C-6.13095352 63.81450287 -6.1442923 64.73911316 -6.15803528 65.69174194 C-6.16310593 66.50494904 -6.16817657 67.31815613 -6.17340088 68.15600586 C-6.65219878 70.77999811 -7.47807093 71.64641567 -9.55867004 73.26742554 C-12.60522571 74.30966827 -14.14661658 74.39199984 -17.24617004 73.45492554 C-19.55867004 72.26742554 -19.55867004 72.26742554 -21.55867004 70.26742554 C-21.78572083 67.92904663 -21.78572083 67.92904663 -21.75398254 65.04086304 C-21.74753723 64.00961304 -21.74109192 62.97836304 -21.73445129 61.91586304 C-21.71769348 60.83562866 -21.70093567 59.75539429 -21.68367004 58.64242554 C-21.67464661 57.55445679 -21.66562317 56.46648804 -21.65632629 55.34555054 C-21.63270413 52.65262402 -21.5997656 49.96013298 -21.55867004 47.26742554 C-43.3389996 46.997458 -43.3389996 46.997458 -61.71492004 57.02133179 C-67.82161386 64.46063039 -68.68174205 72.86679228 -68.6873045 82.25407124 C-68.68905753 82.92437141 -68.69081057 83.59467159 -68.69261673 84.28528389 C-68.69725556 86.52343676 -68.69481672 88.76152406 -68.69238281 90.99967957 C-68.69425185 92.62376591 -68.69655292 94.2478518 -68.69924814 95.87193698 C-68.70536103 100.32904062 -68.70523314 104.78612549 -68.70405376 109.24323237 C-68.70384963 114.05248276 -68.70936971 118.86172714 -68.71411133 123.67097473 C-68.72241555 133.09087748 -68.72516606 142.51077397 -68.72572371 151.93068007 C-68.72619896 159.58775152 -68.72825415 167.24482091 -68.73142433 174.90189171 C-68.74023013 196.61286528 -68.7448438 218.3238339 -68.74409386 240.03480927 C-68.7440539 241.20510047 -68.74401395 242.37539167 -68.74397278 243.58114624 C-68.7439319 244.75286685 -68.74389102 245.92458745 -68.7438489 247.13181474 C-68.7434424 266.12327731 -68.75301298 285.11472006 -68.76711114 304.10617689 C-68.78147406 323.60820221 -68.78838138 343.11021786 -68.78751737 362.6122486 C-68.78718538 373.56047032 -68.78993334 384.50867125 -68.80069542 395.4568882 C-68.80979928 404.77790199 -68.81197658 414.09888557 -68.805186 423.41990189 C-68.80192028 428.17451116 -68.80186601 432.92906247 -68.81053925 437.68366623 C-68.81840278 442.03922442 -68.81697429 446.39467867 -68.80825511 450.75023433 C-68.80671981 452.3228714 -68.80853742 453.89551623 -68.81411519 455.46814416 C-68.94763035 473.05717369 -68.94763035 473.05717369 -60.94148254 488.14633179 C-53.22987646 495.80994033 -43.10723795 496.59952773 -32.66970825 496.64860535 C-31.47548752 496.63931503 -30.28126678 496.63002472 -29.05085754 496.62045288 C-27.06699138 496.62376843 -25.08312523 496.62708857 -23.09925938 496.63058305 C-20.99316074 496.63154473 -18.88719406 496.62527435 -16.78111267 496.61698532 C-12.37671887 496.60048582 -7.97258516 496.60915163 -3.56819153 496.62182617 C8.15317339 496.65180327 19.87448714 496.65042392 31.59587097 496.63157332 C39.32123728 496.61924657 47.04630518 496.62106731 54.77163696 496.64996111 C59.14962819 496.66518818 63.52680743 496.6577282 67.90474796 496.63325095 C71.25950363 496.62083088 74.61393077 496.6407452 77.96867371 496.65560913 C79.17908829 496.64227036 80.38950287 496.62893158 81.63659668 496.6151886 C89.75264452 496.69546657 89.75264452 496.69546657 93.22477722 499.57910156 C94.88516565 503.24820845 94.50806906 505.42716477 93.44132996 509.26742554 C92.23674583 510.95371246 92.23674583 510.95371246 90.44132996 512.26742554 C87.8908329 512.65053558 87.8908329 512.65053558 84.7771759 512.66183472 C83.59702911 512.67318451 82.41688232 512.6845343 81.20097351 512.69622803 C79.90437805 512.69329742 78.60778259 512.69036682 77.27189636 512.68734741 C75.89354259 512.69468669 74.51519498 512.7032725 73.13685608 512.7130127 C69.38829232 512.73527117 65.63994815 512.73815663 61.89132738 512.73626518 C58.75589817 512.7361455 55.62051547 512.74471036 52.4850992 512.7530427 C45.07676051 512.77229844 37.66853447 512.77515533 30.26017761 512.7684021 C22.64223112 512.76178438 15.02477167 512.78452842 7.40692389 512.82171583 C0.85297074 512.85253769 -5.70082692 512.86375868 -12.25485098 512.85987902 C-16.16273426 512.85782151 -20.07023994 512.86313204 -23.97805405 512.88777161 C-27.66367626 512.91023888 -31.34851774 512.90799814 -35.03414536 512.88784409 C-37.01046775 512.88287326 -38.986806 512.90231562 -40.96302795 512.92285156 C-53.45207628 512.80700116 -63.42647329 509.41814422 -72.40632629 500.58383179 C-83.19775608 488.96982478 -85.15778597 477.74471192 -85.07333374 462.31506348 C-85.07866562 460.60716144 -85.08573499 458.89926409 -85.0943808 457.19137561 C-85.11295013 452.52097312 -85.10672287 447.85088896 -85.09622777 443.18047357 C-85.08921949 438.13467186 -85.10524608 433.08893448 -85.1182251 428.04315186 C-85.1398434 418.16688946 -85.13974369 408.2907424 -85.13159955 398.41446413 C-85.125294 390.38517339 -85.12644169 382.35591622 -85.13287163 374.32662582 C-85.13377328 373.18287006 -85.13467494 372.03911429 -85.13560392 370.86069926 C-85.13745516 368.53699263 -85.13931772 366.21328601 -85.14119148 363.8895794 C-85.15776254 342.10941049 -85.14905678 320.3293064 -85.1322059 298.54914139 C-85.11751122 278.63519827 -85.13213535 258.72140606 -85.16097606 238.80748238 C-85.19038857 218.34592036 -85.20133681 197.88442795 -85.19179386 177.42284572 C-85.19077134 175.10718275 -85.18977673 172.79151977 -85.18881035 170.47585678 C-85.18833396 169.33658925 -85.18785757 168.19732172 -85.18736674 167.02353094 C-85.18520498 159.00793053 -85.19499412 150.99239621 -85.20958138 142.97681046 C-85.22712157 133.20247526 -85.22696309 123.4283324 -85.20422972 113.65400471 C-85.1931027 108.67004416 -85.1898902 103.68642225 -85.20853043 98.7024765 C-85.22539672 94.13393347 -85.21890127 89.56602284 -85.19431364 84.99752031 C-85.18945006 83.35092889 -85.19289189 81.70428585 -85.20580108 80.05773784 C-85.30726422 66.10156193 -82.99874029 54.71021522 -72.87507629 44.41976929 C-61.58838824 33.93247566 -51.17841779 31.62911196 -35.87117004 32.01742554 C-34.47601372 32.03754408 -33.08082901 32.05578529 -31.68562317 32.07211304 C-28.30922938 32.11884513 -24.93433199 32.18435198 -21.55867004 32.26742554 C-21.61667786 31.13305054 -21.67468567 29.99867554 -21.73445129 28.82992554 C-22.26727266 14.08744466 -22.26727266 14.08744466 -18.05085754 8.77523804 C-12.62166602 3.28919634 -7.94817246 0.02779571 0 0 Z M205.44132996 136.26742554 C205.44132996 238.23742554 205.44132996 340.20742554 205.44132996 445.26742554 C210.39132996 445.26742554 215.34132996 445.26742554 220.44132996 445.26742554 C220.44275497 442.91880905 220.44417999 440.57019257 220.44564819 438.15040588 C220.46141977 416.06230933 220.50466745 393.97438972 220.57342052 371.88639355 C220.60810592 360.52957692 220.6334307 349.17288212 220.6368866 337.81600952 C220.63992156 327.91986837 220.66034887 318.02394398 220.70185453 308.12788659 C220.72322878 302.88565263 220.73576246 297.64372718 220.72748375 292.4014492 C220.71997157 287.47079228 220.73565043 282.54076192 220.76939011 277.61021996 C220.77765771 275.7973719 220.77733319 273.98446193 220.76792717 272.17161942 C220.75637911 269.70213117 220.77530698 267.23472185 220.80209351 264.76539612 C220.78608362 263.68125649 220.78608362 263.68125649 220.7697503 262.57521504 C220.81047344 260.5726347 220.81047344 260.5726347 221.44132996 257.26742554 C224.42703749 254.7414132 225.70699669 254.22422946 229.62882996 254.45492554 C232.44132996 255.26742554 232.44132996 255.26742554 234.44132996 257.26742554 C234.64650346 259.73763753 234.72646518 262.09713167 234.71980286 264.56921387 C234.72849146 265.71108825 234.72849146 265.71108825 234.73735559 266.8760308 C234.75443223 269.44029448 234.75723863 272.00437902 234.76017761 274.56869507 C234.76947052 276.40148362 234.77963822 278.23426791 234.7906189 280.06704712 C234.81800495 285.05436388 234.83309371 290.04165227 234.84604692 295.0290246 C234.86163995 300.23676987 234.88844228 305.44445687 234.91407776 310.65216064 C234.96093356 320.51896068 234.99764468 330.3857716 235.03075063 340.2526263 C235.06892407 351.48345021 235.11834667 362.71421568 235.16873479 373.9449904 C235.27215576 397.05242551 235.361383 420.15989813 235.44132996 443.26742554 C241.39889141 441.40304146 243.91379074 439.32246615 247.44132996 434.26742554 C250.92527508 427.46543744 250.5864984 419.99883616 250.57504272 412.54603577 C250.57844106 410.92465902 250.57844106 410.92465902 250.58190805 409.27052718 C250.58823894 405.64798179 250.58741926 402.0254739 250.58659363 398.40292358 C250.58958568 395.8058365 250.59298832 393.20874987 250.59677124 390.61166382 C250.6050691 384.28879374 250.60782569 377.96593298 250.60838362 371.64305791 C250.60885919 366.50216291 250.61091601 361.36127099 250.61408424 356.22037697 C250.62288848 341.63697024 250.62750398 327.05357086 250.62675377 312.47016146 C250.62669384 311.29146611 250.62669384 311.29146611 250.62663269 310.08895874 C250.62657137 308.90882007 250.62657137 308.90882007 250.62650881 307.70484022 C250.62610241 294.95606563 250.63567099 282.20732058 250.64977106 269.45855453 C250.66414301 256.36034528 250.67104079 243.26215043 250.67017728 230.1639331 C250.66984559 222.81345071 250.67258031 215.4629993 250.68335533 208.11252403 C250.69342508 201.1990006 250.69311659 194.28554357 250.6858387 187.37201691 C250.68479266 184.83601346 250.6871569 182.30000594 250.69319916 179.76400948 C250.70091911 176.29918481 250.69627402 172.83458605 250.68856812 169.36976624 C250.69371168 168.36897323 250.69885524 167.36818022 250.70415467 166.33706015 C250.65543414 156.40692096 249.47435854 148.62877732 242.44132996 141.26742554 C239.23455992 138.85046529 239.23455992 138.85046529 235.44132996 138.26742554 C235.43546371 139.41334671 235.42959747 140.55926788 235.42355347 141.73991394 C235.36640219 152.52605272 235.29368059 163.31198842 235.20561504 174.09792042 C235.16083998 179.64342109 235.12159965 185.18884708 235.09489441 190.73446655 C235.06893257 196.08381511 235.02858091 201.43287734 234.97814369 206.78204918 C234.96142669 208.82540012 234.94994262 210.86880063 234.94371605 212.91221046 C234.93412742 215.76895976 234.90613142 218.62496851 234.873703 221.48153687 C234.87513809 222.33101898 234.87657318 223.1805011 234.87805176 224.0557251 C234.78525956 229.81521385 234.78525956 229.81521385 233.13515949 231.984828 C230.32785255 234.11057023 227.82395879 233.62985006 224.44132996 233.26742554 C222.74750042 231.98957348 222.74750042 231.98957348 221.44132996 230.26742554 C221.13127576 227.21191271 221.00390169 224.35619333 221.00895691 221.29794312 C220.99876526 220.3806694 220.98857361 219.46339569 220.97807312 218.51832581 C220.94785012 215.48280809 220.93866294 212.44760544 220.92961121 209.41195679 C220.91277143 207.3087305 220.89462215 205.20551433 220.87521362 203.10231018 C220.82763143 197.56377317 220.79787521 192.02527713 220.77177429 186.48660278 C220.74201023 180.83598741 220.69546567 175.18551333 220.65031433 169.53500366 C220.56418769 158.44588474 220.49688404 147.3567368 220.44132996 136.26742554 C215.49132996 136.26742554 210.54132996 136.26742554 205.44132996 136.26742554 Z " fill="#000000" transform="translate(165.5586700439453,-0.267425537109375)"/>
<path d="M0 0 C0.84685435 -0.00367669 1.69370869 -0.00735338 2.56622529 -0.01114148 C5.42047866 -0.02220589 8.27469565 -0.02602682 11.12896729 -0.02983093 C13.16876339 -0.0360935 15.20855835 -0.04274011 17.24835205 -0.04974365 C22.80217439 -0.06717252 28.35598812 -0.07771053 33.90983105 -0.08594918 C37.37767627 -0.09109527 40.8455188 -0.09717117 44.31336212 -0.10346031 C55.15760508 -0.12251753 66.00184121 -0.13674762 76.84609771 -0.14507228 C89.37476971 -0.15484806 101.9032652 -0.18117435 114.43187499 -0.22157317 C124.10836367 -0.25170727 133.78480167 -0.26653858 143.46133637 -0.26985329 C149.244097 -0.27220685 155.02666917 -0.28120702 160.80937958 -0.30631447 C166.24961911 -0.3295528 171.68954553 -0.33384542 177.12982178 -0.32355309 C179.12688487 -0.32305658 181.12396314 -0.32941053 183.12097931 -0.34310913 C185.84730598 -0.3607644 188.57250123 -0.35375334 191.29882812 -0.34057617 C192.48454206 -0.35703004 192.48454206 -0.35703004 193.69420981 -0.37381631 C198.87821275 -0.31331605 201.7691951 0.76340913 205.90338135 4.14717102 C209.20895724 7.89944636 211.0218368 10.23009297 211.05055237 15.21961975 C211.06128532 16.49810287 211.06128532 16.49810287 211.07223511 17.80241394 C211.07492401 18.73957245 211.07761292 19.67673096 211.0803833 20.64228821 C211.0869545 21.6278067 211.0935257 22.6133252 211.10029602 23.62870789 C211.12005779 26.90048798 211.13169831 30.1722221 211.1416626 33.44404602 C211.14573812 34.56004433 211.14981365 35.67604263 211.15401268 36.82585907 C211.17488614 42.73309139 211.18918209 48.6403004 211.19854736 54.54756165 C211.20961175 60.65205935 211.2440087 66.75619254 211.28371906 72.86056137 C211.30985499 77.55145448 211.31823655 82.24226038 211.32182884 86.93321991 C211.32670295 89.18348399 211.33834027 91.43374398 211.35686684 93.68393707 C211.38119228 96.83441087 211.38030494 99.98393691 211.37335205 103.13447571 C211.39256714 104.52806808 211.39256714 104.52806808 211.41217041 105.94981384 C211.36734226 111.52508297 210.64272753 114.73508518 206.90338135 119.14717102 C202.28751135 123.21353269 199.94982938 124.27121987 193.84335327 124.29434204 C191.90423065 124.305075 191.90423065 124.305075 189.92593384 124.31602478 C188.48498559 124.31886516 187.04403709 124.32157688 185.60308838 124.32417297 C184.09205976 124.33043644 182.5810327 124.33708313 181.07000732 124.34408569 C176.95842343 124.36150429 172.84685116 124.37204943 168.73523951 124.38029122 C166.16794157 124.38543874 163.60064727 124.39151453 161.0333519 124.39780235 C153.00509218 124.4168554 144.97684168 124.43108723 136.94856369 124.43941432 C127.67313306 124.44919324 118.39794066 124.47552921 109.122594 124.51591522 C101.95821715 124.54604238 94.79390873 124.56087989 87.62946975 124.56419533 C83.3479868 124.5665494 79.06675833 124.57555592 74.78534317 124.60065651 C70.7584535 124.62388355 66.73198682 124.62819239 62.70504761 124.61789513 C61.22638418 124.61739837 59.74770031 124.62376007 58.26910019 124.63745117 C56.25193593 124.65508544 54.2345892 124.64570632 52.21737671 124.63491821 C51.08801256 124.63730657 49.95864841 124.63969492 48.79506111 124.64215565 C45.22848964 124.03164612 44.04989337 123.01718585 41.90338135 120.14717102 C41.40338135 116.64717102 41.40338135 116.64717102 41.90338135 113.14717102 C44.02849588 110.32729247 45.21427087 109.27129802 48.72256088 108.63936234 C50.36519598 108.63383158 50.36519598 108.63383158 52.04101562 108.62818909 C53.30022324 108.61427628 54.55943085 108.60036346 55.85679626 108.58602905 C57.24960457 108.59074199 58.64241162 108.59583594 60.03521729 108.60127258 C61.50378007 108.59253734 62.97233333 108.58205172 64.44087219 108.56994629 C68.42612099 108.5420592 72.41105966 108.53868219 76.39639187 108.53966618 C80.56181745 108.53653938 84.72710288 108.51092607 88.89245605 108.48768616 C96.77945689 108.44710466 104.666375 108.42678043 112.55346417 108.41371226 C123.21174725 108.39488368 133.86988036 108.34480707 144.52806282 108.29646873 C161.3198279 108.22113743 178.11141196 108.18759463 194.90338135 108.14717102 C194.90338135 77.78717102 194.90338135 47.42717102 194.90338135 16.14717102 C129.56338135 16.14717102 64.22338135 16.14717102 -3.09661865 16.14717102 C-3.09661865 46.50717102 -3.09661865 76.86717102 -3.09661865 108.14717102 C4.16338135 108.47717102 11.42338135 108.80717102 18.90338135 109.14717102 C22.90338135 114.14717102 22.90338135 114.14717102 22.84088135 117.77217102 C21.61632015 122.18059134 21.61632015 122.18059134 18.90338135 124.14717102 C14.49677841 124.8008349 10.04041492 124.61020303 5.59088135 124.58467102 C4.3669165 124.60465149 3.14295166 124.62463196 1.88189697 124.6452179 C-9.28437492 124.63914597 -9.28437492 124.63914597 -14.09661865 120.14717102 C-17.40219455 116.39489568 -19.2150741 114.06424907 -19.24378967 109.07472229 C-19.25094498 108.22240021 -19.25810028 107.37007813 -19.26547241 106.4919281 C-19.26816132 105.55476959 -19.27085022 104.61761108 -19.27362061 103.65205383 C-19.2801918 102.66653534 -19.286763 101.68101685 -19.29353333 100.66563416 C-19.31329509 97.39385406 -19.32493562 94.12211994 -19.3348999 90.85029602 C-19.34101319 89.17629856 -19.34101319 89.17629856 -19.34724998 87.46848297 C-19.36812345 81.56125065 -19.3824194 75.65404164 -19.39178467 69.7467804 C-19.40284906 63.64228269 -19.437246 57.5381495 -19.47695637 51.43378067 C-19.50309229 46.74288756 -19.51147386 42.05208166 -19.51506615 37.36112213 C-19.51994026 35.11085805 -19.53157757 32.86059807 -19.55010414 30.61040497 C-19.57442959 27.45993117 -19.57354225 24.31040513 -19.56658936 21.15986633 C-19.57939941 20.23080475 -19.59220947 19.30174316 -19.60540771 18.3445282 C-19.56057957 12.76925907 -18.83596484 9.55925686 -15.09661865 5.14717102 C-9.89900305 0.56831918 -6.77513571 -0.00156253 0 0 Z " fill="#000000" transform="translate(130.09661865234375,150.8528289794922)"/>
<path d="M0 0 C2.22748931 -0.00218643 4.45448297 -0.02036155 6.68188477 -0.03930664 C8.10571121 -0.04224104 9.52953999 -0.04422553 10.95336914 -0.04516602 C12.24235107 -0.0492749 13.53133301 -0.05338379 14.859375 -0.05761719 C19.48093939 0.26858389 22.04335605 0.98350961 25.41184998 4.2023468 C27.99859664 8.28674853 27.86409274 11.4702243 27.81860352 16.21069336 C27.82561279 17.11047409 27.83262207 18.01025482 27.83984375 18.93730164 C27.8574205 21.9057011 27.84580203 24.87314391 27.83227539 27.84155273 C27.83497039 29.90751325 27.83885288 31.97347253 27.84387207 34.03942871 C27.84976669 38.36698496 27.84120515 42.69421071 27.82250977 47.02172852 C27.79972044 52.56696123 27.81284369 58.11141954 27.83679962 63.65662384 C27.85125844 67.92203601 27.84665118 72.18726478 27.83628845 76.4526825 C27.83362141 78.49720858 27.83689012 80.54175134 27.84620667 82.58625793 C27.85637346 85.44459087 27.84086916 88.30167232 27.81860352 91.15991211 C27.82670044 92.00369919 27.83479736 92.84748627 27.84313965 93.71684265 C27.7851834 97.73582381 27.60117099 99.7129648 25.39367676 103.18688965 C21.57490875 106.83368724 18.00024186 106.3774269 12.96899414 106.42358398 C12.1402327 106.43165573 11.31147125 106.43972748 10.45759583 106.44804382 C8.70156954 106.46188494 6.94551636 106.47260698 5.18945312 106.48046875 C2.5093253 106.49766924 -0.16956488 106.54155199 -2.84936523 106.58569336 C-4.55573637 106.59582153 -6.262118 106.60433724 -7.96850586 106.61108398 C-8.76762894 106.62859207 -9.56675201 106.64610016 -10.39009094 106.66413879 C-14.35867137 106.64873954 -16.24849838 106.47245875 -19.68212891 104.28369141 C-23.42883828 100.38549905 -22.86616355 96.65889072 -22.8918457 91.51635742 C-22.90002319 90.61862106 -22.90820068 89.7208847 -22.91662598 88.79594421 C-22.94149725 85.81636222 -22.95800101 82.83682794 -22.97241211 79.85717773 C-22.97773579 78.84047249 -22.98305946 77.82376724 -22.98854446 76.77625275 C-23.01528441 71.39421848 -23.03465605 66.01220747 -23.04907227 60.63012695 C-23.06571624 55.07032867 -23.11048978 49.51112358 -23.16144371 43.95154953 C-23.19509896 39.67756468 -23.20664788 35.40372086 -23.21229935 31.12961578 C-23.21901726 29.0802889 -23.2342533 27.03097147 -23.25819016 24.98177338 C-23.28980537 22.1112995 -23.28988378 19.24242842 -23.2824707 16.37182617 C-23.29887604 15.52692123 -23.31528137 14.6820163 -23.33218384 13.81150818 C-23.28792357 9.61945486 -22.96110088 6.9848068 -20.27885437 3.66517639 C-14.80293747 -1.59847282 -7.19914477 -0.00079294 0 0 Z M-7.69897461 16.18530273 C-7.69897461 40.60530273 -7.69897461 65.02530273 -7.69897461 90.18530273 C-1.09897461 90.18530273 5.50102539 90.18530273 12.30102539 90.18530273 C12.30102539 65.76530273 12.30102539 41.34530273 12.30102539 16.18530273 C5.70102539 16.18530273 -0.89897461 16.18530273 -7.69897461 16.18530273 Z " fill="#000000" transform="translate(313.698974609375,363.814697265625)"/>
<path d="M0 0 C2.22748931 -0.00218643 4.45448297 -0.02036155 6.68188477 -0.03930664 C8.10571121 -0.04224104 9.52953999 -0.04422553 10.95336914 -0.04516602 C12.24235107 -0.0492749 13.53133301 -0.05338379 14.859375 -0.05761719 C19.60631669 0.27743332 22.10909941 1.05874373 25.58032227 4.33959961 C27.7048136 7.85308868 27.87975269 10.72727867 27.83227539 14.71655273 C27.83610229 15.43008911 27.8399292 16.14362549 27.84387207 16.87878418 C27.84658386 18.38152484 27.83927393 19.88431329 27.82250977 21.38696289 C27.80108531 23.6788926 27.82233178 25.96768852 27.84790039 28.25952148 C27.84525698 29.72437211 27.84013171 31.18922079 27.83227539 32.65405273 C27.84037231 33.33439575 27.84846924 34.01473877 27.85681152 34.71569824 C27.76407654 39.45347819 26.63505939 41.85126874 23.30102539 45.18530273 C20.06792697 46.80185194 16.52307182 46.39097858 12.96899414 46.42358398 C12.1402327 46.43165573 11.31147125 46.43972748 10.45759583 46.44804382 C8.70156954 46.46188494 6.94551636 46.47260698 5.18945312 46.48046875 C2.5093253 46.49766924 -0.16956488 46.54155199 -2.84936523 46.58569336 C-4.55573637 46.59582153 -6.262118 46.60433724 -7.96850586 46.61108398 C-8.76762894 46.62859207 -9.56675201 46.64610016 -10.39009094 46.66413879 C-14.35867137 46.64873954 -16.24849838 46.47245875 -19.68212891 44.28369141 C-24.27916777 39.50078994 -22.9999045 32.54374864 -23.04907227 26.26489258 C-23.06559892 24.71884066 -23.09284605 23.17286412 -23.13110352 21.62719727 C-23.18613618 19.3909569 -23.20778556 17.15650589 -23.22241211 14.91967773 C-23.24508148 14.23508484 -23.26775085 13.55049194 -23.29110718 12.84515381 C-23.27477684 9.09910212 -22.67840492 6.67784363 -20.41625977 3.7644043 C-14.81243332 -1.55444768 -7.33709679 -0.00080814 0 0 Z M-7.69897461 16.18530273 C-7.69897461 20.80530273 -7.69897461 25.42530273 -7.69897461 30.18530273 C-1.09897461 30.18530273 5.50102539 30.18530273 12.30102539 30.18530273 C12.30102539 25.56530273 12.30102539 20.94530273 12.30102539 16.18530273 C5.70102539 16.18530273 -0.89897461 16.18530273 -7.69897461 16.18530273 Z " fill="#000000" transform="translate(313.698974609375,303.814697265625)"/>
<path d="M0 0 C1.22783203 -0.01224609 2.45566406 -0.02449219 3.72070312 -0.03710938 C4.90470703 -0.03904297 6.08871094 -0.04097656 7.30859375 -0.04296875 C8.38810303 -0.04707764 9.4676123 -0.05118652 10.57983398 -0.05541992 C15.06312395 0.30971665 17.55655446 1.23672199 20.84179688 4.34179688 C22.96628821 7.85528595 23.1412273 10.72947593 23.09375 14.71875 C23.0975769 15.43228638 23.10140381 16.14582275 23.10534668 16.88098145 C23.10805847 18.38372211 23.10074854 19.88651056 23.08398438 21.38916016 C23.06255992 23.68108987 23.08380639 25.96988579 23.109375 28.26171875 C23.10673159 29.72656937 23.10160632 31.19141806 23.09375 32.65625 C23.10184692 33.33659302 23.10994385 34.01693604 23.11828613 34.71789551 C23.02555115 39.45567546 21.896534 41.853466 18.5625 45.1875 C15.60182362 46.66783819 12.57288079 46.39129329 9.32421875 46.42578125 C8.60643753 46.433853 7.88865631 46.44192474 7.14912415 46.45024109 C5.62849337 46.46407786 4.10783159 46.47480185 2.5871582 46.48266602 C0.26908958 46.49985842 -2.04754469 46.54374181 -4.36523438 46.58789062 C-5.84373953 46.59801977 -7.32225679 46.60653519 -8.80078125 46.61328125 C-9.49053543 46.63078934 -10.18028961 46.64829742 -10.89094543 46.66633606 C-15.68248148 46.64489701 -18.07422053 45.57204362 -21.4375 42.1875 C-23.67495673 37.71258655 -22.74869779 31.2347076 -22.78759766 26.26708984 C-22.80412431 24.72103793 -22.83137144 23.17506139 -22.86962891 21.62939453 C-22.92466157 19.39315417 -22.94631095 17.15870315 -22.9609375 14.921875 C-22.98360687 14.2372821 -23.00627625 13.55268921 -23.02963257 12.84735107 C-23.01330223 9.10129938 -22.41693031 6.68004089 -20.15478516 3.76660156 C-14.58450378 -1.52041124 -7.31908303 0.00382998 0 0 Z M-7.4375 16.1875 C-7.4375 20.8075 -7.4375 25.4275 -7.4375 30.1875 C-2.4875 30.1875 2.4625 30.1875 7.5625 30.1875 C7.5625 25.5675 7.5625 20.9475 7.5625 16.1875 C2.6125 16.1875 -2.3375 16.1875 -7.4375 16.1875 Z " fill="#000000" transform="translate(253.4375,423.8125)"/>
<path d="M0 0 C1.22783203 -0.01224609 2.45566406 -0.02449219 3.72070312 -0.03710938 C4.90470703 -0.03904297 6.08871094 -0.04097656 7.30859375 -0.04296875 C8.38810303 -0.04707764 9.4676123 -0.05118652 10.57983398 -0.05541992 C15.06312395 0.30971665 17.55655446 1.23672199 20.84179688 4.34179688 C22.96628821 7.85528595 23.1412273 10.72947593 23.09375 14.71875 C23.0975769 15.43228638 23.10140381 16.14582275 23.10534668 16.88098145 C23.10805847 18.38372211 23.10074854 19.88651056 23.08398438 21.38916016 C23.06255992 23.68108987 23.08380639 25.96988579 23.109375 28.26171875 C23.10673159 29.72656937 23.10160632 31.19141806 23.09375 32.65625 C23.10184692 33.33659302 23.10994385 34.01693604 23.11828613 34.71789551 C23.02555115 39.45567546 21.896534 41.853466 18.5625 45.1875 C15.60182362 46.66783819 12.57288079 46.39129329 9.32421875 46.42578125 C8.60643753 46.433853 7.88865631 46.44192474 7.14912415 46.45024109 C5.62849337 46.46407786 4.10783159 46.47480185 2.5871582 46.48266602 C0.26908958 46.49985842 -2.04754469 46.54374181 -4.36523438 46.58789062 C-5.84373953 46.59801977 -7.32225679 46.60653519 -8.80078125 46.61328125 C-9.49053543 46.63078934 -10.18028961 46.64829742 -10.89094543 46.66633606 C-15.68248148 46.64489701 -18.07422053 45.57204362 -21.4375 42.1875 C-23.67495673 37.71258655 -22.74869779 31.2347076 -22.78759766 26.26708984 C-22.80412431 24.72103793 -22.83137144 23.17506139 -22.86962891 21.62939453 C-22.92466157 19.39315417 -22.94631095 17.15870315 -22.9609375 14.921875 C-22.98360687 14.2372821 -23.00627625 13.55268921 -23.02963257 12.84735107 C-23.01330223 9.10129938 -22.41693031 6.68004089 -20.15478516 3.76660156 C-14.58450378 -1.52041124 -7.31908303 0.00382998 0 0 Z M-7.4375 16.1875 C-7.4375 20.8075 -7.4375 25.4275 -7.4375 30.1875 C-2.4875 30.1875 2.4625 30.1875 7.5625 30.1875 C7.5625 25.5675 7.5625 20.9475 7.5625 16.1875 C2.6125 16.1875 -2.3375 16.1875 -7.4375 16.1875 Z " fill="#000000" transform="translate(193.4375,423.8125)"/>
<path d="M0 0 C1.22783203 -0.01224609 2.45566406 -0.02449219 3.72070312 -0.03710938 C4.90470703 -0.03904297 6.08871094 -0.04097656 7.30859375 -0.04296875 C8.38810303 -0.04707764 9.4676123 -0.05118652 10.57983398 -0.05541992 C15.06312395 0.30971665 17.55655446 1.23672199 20.84179688 4.34179688 C22.96628821 7.85528595 23.1412273 10.72947593 23.09375 14.71875 C23.0975769 15.43228638 23.10140381 16.14582275 23.10534668 16.88098145 C23.10805847 18.38372211 23.10074854 19.88651056 23.08398438 21.38916016 C23.06255992 23.68108987 23.08380639 25.96988579 23.109375 28.26171875 C23.10673159 29.72656937 23.10160632 31.19141806 23.09375 32.65625 C23.10184692 33.33659302 23.10994385 34.01693604 23.11828613 34.71789551 C23.02555115 39.45567546 21.896534 41.853466 18.5625 45.1875 C15.60182362 46.66783819 12.57288079 46.39129329 9.32421875 46.42578125 C8.60643753 46.433853 7.88865631 46.44192474 7.14912415 46.45024109 C5.62849337 46.46407786 4.10783159 46.47480185 2.5871582 46.48266602 C0.26908958 46.49985842 -2.04754469 46.54374181 -4.36523438 46.58789062 C-5.84373953 46.59801977 -7.32225679 46.60653519 -8.80078125 46.61328125 C-9.49053543 46.63078934 -10.18028961 46.64829742 -10.89094543 46.66633606 C-15.68248148 46.64489701 -18.07422053 45.57204362 -21.4375 42.1875 C-23.67495673 37.71258655 -22.74869779 31.2347076 -22.78759766 26.26708984 C-22.80412431 24.72103793 -22.83137144 23.17506139 -22.86962891 21.62939453 C-22.92466157 19.39315417 -22.94631095 17.15870315 -22.9609375 14.921875 C-22.98360687 14.2372821 -23.00627625 13.55268921 -23.02963257 12.84735107 C-23.01330223 9.10129938 -22.41693031 6.68004089 -20.15478516 3.76660156 C-14.58450378 -1.52041124 -7.31908303 0.00382998 0 0 Z M-7.4375 16.1875 C-7.4375 20.8075 -7.4375 25.4275 -7.4375 30.1875 C-2.4875 30.1875 2.4625 30.1875 7.5625 30.1875 C7.5625 25.5675 7.5625 20.9475 7.5625 16.1875 C2.6125 16.1875 -2.3375 16.1875 -7.4375 16.1875 Z " fill="#000000" transform="translate(133.4375,423.8125)"/>
<path d="M0 0 C1.22783203 -0.01224609 2.45566406 -0.02449219 3.72070312 -0.03710938 C4.90470703 -0.03904297 6.08871094 -0.04097656 7.30859375 -0.04296875 C8.38810303 -0.04707764 9.4676123 -0.05118652 10.57983398 -0.05541992 C15.06312395 0.30971665 17.55655446 1.23672199 20.84179688 4.34179688 C22.96628821 7.85528595 23.1412273 10.72947593 23.09375 14.71875 C23.0975769 15.43228638 23.10140381 16.14582275 23.10534668 16.88098145 C23.10805847 18.38372211 23.10074854 19.88651056 23.08398438 21.38916016 C23.06255992 23.68108987 23.08380639 25.96988579 23.109375 28.26171875 C23.10673159 29.72656937 23.10160632 31.19141806 23.09375 32.65625 C23.10184692 33.33659302 23.10994385 34.01693604 23.11828613 34.71789551 C23.02555115 39.45567546 21.896534 41.853466 18.5625 45.1875 C15.60182362 46.66783819 12.57288079 46.39129329 9.32421875 46.42578125 C8.60643753 46.433853 7.88865631 46.44192474 7.14912415 46.45024109 C5.62849337 46.46407786 4.10783159 46.47480185 2.5871582 46.48266602 C0.26908958 46.49985842 -2.04754469 46.54374181 -4.36523438 46.58789062 C-5.84373953 46.59801977 -7.32225679 46.60653519 -8.80078125 46.61328125 C-9.49053543 46.63078934 -10.18028961 46.64829742 -10.89094543 46.66633606 C-15.68248148 46.64489701 -18.07422053 45.57204362 -21.4375 42.1875 C-23.67495673 37.71258655 -22.74869779 31.2347076 -22.78759766 26.26708984 C-22.80412431 24.72103793 -22.83137144 23.17506139 -22.86962891 21.62939453 C-22.92466157 19.39315417 -22.94631095 17.15870315 -22.9609375 14.921875 C-22.98360687 14.2372821 -23.00627625 13.55268921 -23.02963257 12.84735107 C-23.01330223 9.10129938 -22.41693031 6.68004089 -20.15478516 3.76660156 C-14.58450378 -1.52041124 -7.31908303 0.00382998 0 0 Z M-7.4375 16.1875 C-7.4375 20.8075 -7.4375 25.4275 -7.4375 30.1875 C-2.4875 30.1875 2.4625 30.1875 7.5625 30.1875 C7.5625 25.5675 7.5625 20.9475 7.5625 16.1875 C2.6125 16.1875 -2.3375 16.1875 -7.4375 16.1875 Z " fill="#000000" transform="translate(253.4375,363.8125)"/>
<path d="M0 0 C1.22783203 -0.01224609 2.45566406 -0.02449219 3.72070312 -0.03710938 C4.90470703 -0.03904297 6.08871094 -0.04097656 7.30859375 -0.04296875 C8.38810303 -0.04707764 9.4676123 -0.05118652 10.57983398 -0.05541992 C15.06312395 0.30971665 17.55655446 1.23672199 20.84179688 4.34179688 C22.96628821 7.85528595 23.1412273 10.72947593 23.09375 14.71875 C23.0975769 15.43228638 23.10140381 16.14582275 23.10534668 16.88098145 C23.10805847 18.38372211 23.10074854 19.88651056 23.08398438 21.38916016 C23.06255992 23.68108987 23.08380639 25.96988579 23.109375 28.26171875 C23.10673159 29.72656937 23.10160632 31.19141806 23.09375 32.65625 C23.10184692 33.33659302 23.10994385 34.01693604 23.11828613 34.71789551 C23.02555115 39.45567546 21.896534 41.853466 18.5625 45.1875 C15.60182362 46.66783819 12.57288079 46.39129329 9.32421875 46.42578125 C8.60643753 46.433853 7.88865631 46.44192474 7.14912415 46.45024109 C5.62849337 46.46407786 4.10783159 46.47480185 2.5871582 46.48266602 C0.26908958 46.49985842 -2.04754469 46.54374181 -4.36523438 46.58789062 C-5.84373953 46.59801977 -7.32225679 46.60653519 -8.80078125 46.61328125 C-9.49053543 46.63078934 -10.18028961 46.64829742 -10.89094543 46.66633606 C-15.68248148 46.64489701 -18.07422053 45.57204362 -21.4375 42.1875 C-23.67495673 37.71258655 -22.74869779 31.2347076 -22.78759766 26.26708984 C-22.80412431 24.72103793 -22.83137144 23.17506139 -22.86962891 21.62939453 C-22.92466157 19.39315417 -22.94631095 17.15870315 -22.9609375 14.921875 C-22.98360687 14.2372821 -23.00627625 13.55268921 -23.02963257 12.84735107 C-23.01330223 9.10129938 -22.41693031 6.68004089 -20.15478516 3.76660156 C-14.58450378 -1.52041124 -7.31908303 0.00382998 0 0 Z M-7.4375 16.1875 C-7.4375 20.8075 -7.4375 25.4275 -7.4375 30.1875 C-2.4875 30.1875 2.4625 30.1875 7.5625 30.1875 C7.5625 25.5675 7.5625 20.9475 7.5625 16.1875 C2.6125 16.1875 -2.3375 16.1875 -7.4375 16.1875 Z " fill="#000000" transform="translate(193.4375,363.8125)"/>
<path d="M0 0 C1.22783203 -0.01224609 2.45566406 -0.02449219 3.72070312 -0.03710938 C4.90470703 -0.03904297 6.08871094 -0.04097656 7.30859375 -0.04296875 C8.38810303 -0.04707764 9.4676123 -0.05118652 10.57983398 -0.05541992 C15.06312395 0.30971665 17.55655446 1.23672199 20.84179688 4.34179688 C22.96628821 7.85528595 23.1412273 10.72947593 23.09375 14.71875 C23.0975769 15.43228638 23.10140381 16.14582275 23.10534668 16.88098145 C23.10805847 18.38372211 23.10074854 19.88651056 23.08398438 21.38916016 C23.06255992 23.68108987 23.08380639 25.96988579 23.109375 28.26171875 C23.10673159 29.72656937 23.10160632 31.19141806 23.09375 32.65625 C23.10184692 33.33659302 23.10994385 34.01693604 23.11828613 34.71789551 C23.02555115 39.45567546 21.896534 41.853466 18.5625 45.1875 C15.60182362 46.66783819 12.57288079 46.39129329 9.32421875 46.42578125 C8.60643753 46.433853 7.88865631 46.44192474 7.14912415 46.45024109 C5.62849337 46.46407786 4.10783159 46.47480185 2.5871582 46.48266602 C0.26908958 46.49985842 -2.04754469 46.54374181 -4.36523438 46.58789062 C-5.84373953 46.59801977 -7.32225679 46.60653519 -8.80078125 46.61328125 C-9.49053543 46.63078934 -10.18028961 46.64829742 -10.89094543 46.66633606 C-15.68248148 46.64489701 -18.07422053 45.57204362 -21.4375 42.1875 C-23.67495673 37.71258655 -22.74869779 31.2347076 -22.78759766 26.26708984 C-22.80412431 24.72103793 -22.83137144 23.17506139 -22.86962891 21.62939453 C-22.92466157 19.39315417 -22.94631095 17.15870315 -22.9609375 14.921875 C-22.98360687 14.2372821 -23.00627625 13.55268921 -23.02963257 12.84735107 C-23.01330223 9.10129938 -22.41693031 6.68004089 -20.15478516 3.76660156 C-14.58450378 -1.52041124 -7.31908303 0.00382998 0 0 Z M-7.4375 16.1875 C-7.4375 20.8075 -7.4375 25.4275 -7.4375 30.1875 C-2.4875 30.1875 2.4625 30.1875 7.5625 30.1875 C7.5625 25.5675 7.5625 20.9475 7.5625 16.1875 C2.6125 16.1875 -2.3375 16.1875 -7.4375 16.1875 Z " fill="#000000" transform="translate(133.4375,363.8125)"/>
<path d="M0 0 C1.22783203 -0.01224609 2.45566406 -0.02449219 3.72070312 -0.03710938 C4.90470703 -0.03904297 6.08871094 -0.04097656 7.30859375 -0.04296875 C8.38810303 -0.04707764 9.4676123 -0.05118652 10.57983398 -0.05541992 C15.06312395 0.30971665 17.55655446 1.23672199 20.84179688 4.34179688 C22.96628821 7.85528595 23.1412273 10.72947593 23.09375 14.71875 C23.0975769 15.43228638 23.10140381 16.14582275 23.10534668 16.88098145 C23.10805847 18.38372211 23.10074854 19.88651056 23.08398438 21.38916016 C23.06255992 23.68108987 23.08380639 25.96988579 23.109375 28.26171875 C23.10673159 29.72656937 23.10160632 31.19141806 23.09375 32.65625 C23.10184692 33.33659302 23.10994385 34.01693604 23.11828613 34.71789551 C23.02555115 39.45567546 21.896534 41.853466 18.5625 45.1875 C15.60182362 46.66783819 12.57288079 46.39129329 9.32421875 46.42578125 C8.60643753 46.433853 7.88865631 46.44192474 7.14912415 46.45024109 C5.62849337 46.46407786 4.10783159 46.47480185 2.5871582 46.48266602 C0.26908958 46.49985842 -2.04754469 46.54374181 -4.36523438 46.58789062 C-5.84373953 46.59801977 -7.32225679 46.60653519 -8.80078125 46.61328125 C-9.49053543 46.63078934 -10.18028961 46.64829742 -10.89094543 46.66633606 C-15.68248148 46.64489701 -18.07422053 45.57204362 -21.4375 42.1875 C-23.67495673 37.71258655 -22.74869779 31.2347076 -22.78759766 26.26708984 C-22.80412431 24.72103793 -22.83137144 23.17506139 -22.86962891 21.62939453 C-22.92466157 19.39315417 -22.94631095 17.15870315 -22.9609375 14.921875 C-22.98360687 14.2372821 -23.00627625 13.55268921 -23.02963257 12.84735107 C-23.01330223 9.10129938 -22.41693031 6.68004089 -20.15478516 3.76660156 C-14.58450378 -1.52041124 -7.31908303 0.00382998 0 0 Z M-7.4375 16.1875 C-7.4375 20.8075 -7.4375 25.4275 -7.4375 30.1875 C-2.4875 30.1875 2.4625 30.1875 7.5625 30.1875 C7.5625 25.5675 7.5625 20.9475 7.5625 16.1875 C2.6125 16.1875 -2.3375 16.1875 -7.4375 16.1875 Z " fill="#000000" transform="translate(253.4375,303.8125)"/>
<path d="M0 0 C1.22783203 -0.01224609 2.45566406 -0.02449219 3.72070312 -0.03710938 C4.90470703 -0.03904297 6.08871094 -0.04097656 7.30859375 -0.04296875 C8.38810303 -0.04707764 9.4676123 -0.05118652 10.57983398 -0.05541992 C15.06312395 0.30971665 17.55655446 1.23672199 20.84179688 4.34179688 C22.96628821 7.85528595 23.1412273 10.72947593 23.09375 14.71875 C23.0975769 15.43228638 23.10140381 16.14582275 23.10534668 16.88098145 C23.10805847 18.38372211 23.10074854 19.88651056 23.08398438 21.38916016 C23.06255992 23.68108987 23.08380639 25.96988579 23.109375 28.26171875 C23.10673159 29.72656937 23.10160632 31.19141806 23.09375 32.65625 C23.10184692 33.33659302 23.10994385 34.01693604 23.11828613 34.71789551 C23.02555115 39.45567546 21.896534 41.853466 18.5625 45.1875 C15.60182362 46.66783819 12.57288079 46.39129329 9.32421875 46.42578125 C8.60643753 46.433853 7.88865631 46.44192474 7.14912415 46.45024109 C5.62849337 46.46407786 4.10783159 46.47480185 2.5871582 46.48266602 C0.26908958 46.49985842 -2.04754469 46.54374181 -4.36523438 46.58789062 C-5.84373953 46.59801977 -7.32225679 46.60653519 -8.80078125 46.61328125 C-9.49053543 46.63078934 -10.18028961 46.64829742 -10.89094543 46.66633606 C-15.68248148 46.64489701 -18.07422053 45.57204362 -21.4375 42.1875 C-23.67495673 37.71258655 -22.74869779 31.2347076 -22.78759766 26.26708984 C-22.80412431 24.72103793 -22.83137144 23.17506139 -22.86962891 21.62939453 C-22.92466157 19.39315417 -22.94631095 17.15870315 -22.9609375 14.921875 C-22.98360687 14.2372821 -23.00627625 13.55268921 -23.02963257 12.84735107 C-23.01330223 9.10129938 -22.41693031 6.68004089 -20.15478516 3.76660156 C-14.58450378 -1.52041124 -7.31908303 0.00382998 0 0 Z M-7.4375 16.1875 C-7.4375 20.8075 -7.4375 25.4275 -7.4375 30.1875 C-2.4875 30.1875 2.4625 30.1875 7.5625 30.1875 C7.5625 25.5675 7.5625 20.9475 7.5625 16.1875 C2.6125 16.1875 -2.3375 16.1875 -7.4375 16.1875 Z " fill="#000000" transform="translate(193.4375,303.8125)"/>
<path d="M0 0 C1.22783203 -0.01224609 2.45566406 -0.02449219 3.72070312 -0.03710938 C4.90470703 -0.03904297 6.08871094 -0.04097656 7.30859375 -0.04296875 C8.38810303 -0.04707764 9.4676123 -0.05118652 10.57983398 -0.05541992 C15.06312395 0.30971665 17.55655446 1.23672199 20.84179688 4.34179688 C22.96628821 7.85528595 23.1412273 10.72947593 23.09375 14.71875 C23.0975769 15.43228638 23.10140381 16.14582275 23.10534668 16.88098145 C23.10805847 18.38372211 23.10074854 19.88651056 23.08398438 21.38916016 C23.06255992 23.68108987 23.08380639 25.96988579 23.109375 28.26171875 C23.10673159 29.72656937 23.10160632 31.19141806 23.09375 32.65625 C23.10184692 33.33659302 23.10994385 34.01693604 23.11828613 34.71789551 C23.02555115 39.45567546 21.896534 41.853466 18.5625 45.1875 C15.60182362 46.66783819 12.57288079 46.39129329 9.32421875 46.42578125 C8.60643753 46.433853 7.88865631 46.44192474 7.14912415 46.45024109 C5.62849337 46.46407786 4.10783159 46.47480185 2.5871582 46.48266602 C0.26908958 46.49985842 -2.04754469 46.54374181 -4.36523438 46.58789062 C-5.84373953 46.59801977 -7.32225679 46.60653519 -8.80078125 46.61328125 C-9.49053543 46.63078934 -10.18028961 46.64829742 -10.89094543 46.66633606 C-15.68248148 46.64489701 -18.07422053 45.57204362 -21.4375 42.1875 C-23.67495673 37.71258655 -22.74869779 31.2347076 -22.78759766 26.26708984 C-22.80412431 24.72103793 -22.83137144 23.17506139 -22.86962891 21.62939453 C-22.92466157 19.39315417 -22.94631095 17.15870315 -22.9609375 14.921875 C-22.98360687 14.2372821 -23.00627625 13.55268921 -23.02963257 12.84735107 C-23.01330223 9.10129938 -22.41693031 6.68004089 -20.15478516 3.76660156 C-14.58450378 -1.52041124 -7.31908303 0.00382998 0 0 Z M-7.4375 16.1875 C-7.4375 20.8075 -7.4375 25.4275 -7.4375 30.1875 C-2.4875 30.1875 2.4625 30.1875 7.5625 30.1875 C7.5625 25.5675 7.5625 20.9475 7.5625 16.1875 C2.6125 16.1875 -2.3375 16.1875 -7.4375 16.1875 Z " fill="#000000" transform="translate(133.4375,303.8125)"/>
<path d="M0 0 C0.91245483 -0.00525696 1.82490967 -0.01051392 2.76501465 -0.01593018 C5.7862247 -0.02915217 8.80690943 -0.02038425 11.828125 -0.01025391 C13.92415468 -0.01227401 16.02018367 -0.01518491 18.11621094 -0.01895142 C22.51113571 -0.02337775 26.9058777 -0.01693367 31.30078125 -0.00292969 C36.94031321 0.01416227 42.57941687 0.00432276 48.21893311 -0.01364708 C52.54772176 -0.02447649 56.87640851 -0.02104243 61.2052002 -0.0132637 C63.28487193 -0.01125937 65.36455286 -0.01372912 67.44421387 -0.02070236 C70.34847598 -0.02830291 73.25204001 -0.01673213 76.15625 0 C77.01972046 -0.00607269 77.88319092 -0.01214539 78.77282715 -0.0184021 C84.65270219 0.04450349 84.65270219 0.04450349 86.79754639 1.7772274 C88.48073076 3.89465797 88.47992237 5.20844649 88.453125 7.88818359 C88.46472656 9.04833984 88.46472656 9.04833984 88.4765625 10.23193359 C87.97825739 12.92864361 87.19059316 13.68161483 85.078125 15.38818359 C82.03627889 15.68461256 79.19922568 15.7977681 76.15625 15.77636719 C74.78756775 15.78425262 74.78756775 15.78425262 73.39123535 15.79229736 C70.3700253 15.80551936 67.34934057 15.79675143 64.328125 15.78662109 C62.23209532 15.78864119 60.13606633 15.7915521 58.04003906 15.7953186 C53.64511429 15.79974494 49.2503723 15.79330086 44.85546875 15.77929688 C39.21593679 15.76220492 33.57683313 15.77204443 27.93731689 15.79001427 C23.60852824 15.80084368 19.27984149 15.79740962 14.9510498 15.78963089 C12.87137807 15.78762655 10.79169714 15.79009631 8.71203613 15.79706955 C5.80777402 15.8046701 2.90420999 15.79309931 0 15.77636719 C-0.86347046 15.78243988 -1.72694092 15.78851257 -2.61657715 15.79476929 C-8.49645219 15.7318637 -8.49645219 15.7318637 -10.64129639 13.99913979 C-12.32448076 11.88170922 -12.32367237 10.56792069 -12.296875 7.88818359 C-12.30460938 7.11474609 -12.31234375 6.34130859 -12.3203125 5.54443359 C-11.1335556 -0.87801554 -5.31826923 -0.0374028 0 0 Z " fill="#000000" transform="translate(187.921875,89.61181640625)"/>
<path d="M0 0 C0.91245483 -0.00525696 1.82490967 -0.01051392 2.76501465 -0.01593018 C5.7862247 -0.02915217 8.80690943 -0.02038425 11.828125 -0.01025391 C13.92415468 -0.01227401 16.02018367 -0.01518491 18.11621094 -0.01895142 C22.51113571 -0.02337775 26.9058777 -0.01693367 31.30078125 -0.00292969 C36.94031321 0.01416227 42.57941687 0.00432276 48.21893311 -0.01364708 C52.54772176 -0.02447649 56.87640851 -0.02104243 61.2052002 -0.0132637 C63.28487193 -0.01125937 65.36455286 -0.01372912 67.44421387 -0.02070236 C70.34847598 -0.02830291 73.25204001 -0.01673213 76.15625 0 C77.01972046 -0.00607269 77.88319092 -0.01214539 78.77282715 -0.0184021 C84.65270219 0.04450349 84.65270219 0.04450349 86.79754639 1.7772274 C88.48073076 3.89465797 88.47992237 5.20844649 88.453125 7.88818359 C88.46472656 9.04833984 88.46472656 9.04833984 88.4765625 10.23193359 C87.97825739 12.92864361 87.19059316 13.68161483 85.078125 15.38818359 C82.03627889 15.68461256 79.19922568 15.7977681 76.15625 15.77636719 C74.78756775 15.78425262 74.78756775 15.78425262 73.39123535 15.79229736 C70.3700253 15.80551936 67.34934057 15.79675143 64.328125 15.78662109 C62.23209532 15.78864119 60.13606633 15.7915521 58.04003906 15.7953186 C53.64511429 15.79974494 49.2503723 15.79330086 44.85546875 15.77929688 C39.21593679 15.76220492 33.57683313 15.77204443 27.93731689 15.79001427 C23.60852824 15.80084368 19.27984149 15.79740962 14.9510498 15.78963089 C12.87137807 15.78762655 10.79169714 15.79009631 8.71203613 15.79706955 C5.80777402 15.8046701 2.90420999 15.79309931 0 15.77636719 C-0.86347046 15.78243988 -1.72694092 15.78851257 -2.61657715 15.79476929 C-8.49645219 15.7318637 -8.49645219 15.7318637 -10.64129639 13.99913979 C-12.32448076 11.88170922 -12.32367237 10.56792069 -12.296875 7.88818359 C-12.30460938 7.11474609 -12.31234375 6.34130859 -12.3203125 5.54443359 C-11.1335556 -0.87801554 -5.31826923 -0.0374028 0 0 Z " fill="#000000" transform="translate(187.921875,59.61181640625)"/>
<path d="M0 0 C0.91245483 -0.00525696 1.82490967 -0.01051392 2.76501465 -0.01593018 C5.7862247 -0.02915217 8.80690943 -0.02038425 11.828125 -0.01025391 C13.92415468 -0.01227401 16.02018367 -0.01518491 18.11621094 -0.01895142 C22.51113571 -0.02337775 26.9058777 -0.01693367 31.30078125 -0.00292969 C36.94031321 0.01416227 42.57941687 0.00432276 48.21893311 -0.01364708 C52.54772176 -0.02447649 56.87640851 -0.02104243 61.2052002 -0.0132637 C63.28487193 -0.01125937 65.36455286 -0.01372912 67.44421387 -0.02070236 C70.34847598 -0.02830291 73.25204001 -0.01673213 76.15625 0 C77.01972046 -0.00607269 77.88319092 -0.01214539 78.77282715 -0.0184021 C84.65270219 0.04450349 84.65270219 0.04450349 86.79754639 1.7772274 C88.48073076 3.89465797 88.47992237 5.20844649 88.453125 7.88818359 C88.46472656 9.04833984 88.46472656 9.04833984 88.4765625 10.23193359 C87.97825739 12.92864361 87.19059316 13.68161483 85.078125 15.38818359 C82.03627889 15.68461256 79.19922568 15.7977681 76.15625 15.77636719 C74.78756775 15.78425262 74.78756775 15.78425262 73.39123535 15.79229736 C70.3700253 15.80551936 67.34934057 15.79675143 64.328125 15.78662109 C62.23209532 15.78864119 60.13606633 15.7915521 58.04003906 15.7953186 C53.64511429 15.79974494 49.2503723 15.79330086 44.85546875 15.77929688 C39.21593679 15.76220492 33.57683313 15.77204443 27.93731689 15.79001427 C23.60852824 15.80084368 19.27984149 15.79740962 14.9510498 15.78963089 C12.87137807 15.78762655 10.79169714 15.79009631 8.71203613 15.79706955 C5.80777402 15.8046701 2.90420999 15.79309931 0 15.77636719 C-0.86347046 15.78243988 -1.72694092 15.78851257 -2.61657715 15.79476929 C-8.49645219 15.7318637 -8.49645219 15.7318637 -10.64129639 13.99913979 C-12.32448076 11.88170922 -12.32367237 10.56792069 -12.296875 7.88818359 C-12.30460938 7.11474609 -12.31234375 6.34130859 -12.3203125 5.54443359 C-11.1335556 -0.87801554 -5.31826923 -0.0374028 0 0 Z " fill="#000000" transform="translate(187.921875,29.61181640625)"/>
</svg>
